<?xml version="1.0" encoding="utf-8"?>
<!-- Generator: Adobe Illustrator 24.1.2, SVG Export Plug-In . SVG Version: 6.00 Build 0)  -->
<svg version="1.1" id="Layer_1" xmlns="http://www.w3.org/2000/svg" xmlns:xlink="http://www.w3.org/1999/xlink" x="0px" y="0px"
	 viewBox="0 0 480 390" style="enable-background:new 0 0 480 390;" xml:space="preserve">
<style type="text/css">
	.st0{fill:#8DC63F;}
	.st1{opacity:0.4;fill:#8DC63F;}
	.st2{fill:#66952E;}
</style>
<g>
	<g>
		<path class="st0" d="M468.49,246.61c0-48.74-26.92-91.19-66.7-113.31c-25.24-69.69-92-119.49-170.4-119.49
			C131.33,13.82,50.22,94.94,50.22,195c0,3.23,0.09,6.44,0.26,9.63c-23.62,17.26-38.96,45.17-38.96,76.66
			c0,52.41,42.48,94.89,94.89,94.89h235.75v-0.04C412.22,374.43,468.49,317.09,468.49,246.61z"/>
		<path class="st1" d="M232.18,39.87c55.64,0,105.76,22.2,140.92,57.69c-32.17-45.68-84.62-75.43-143.87-75.43
			c-69.32,0-152.74,52.12-168.87,154.27C89.42,80.96,164.61,39.87,232.18,39.87z"/>
		<path class="st1" d="M449.64,246.54c0.99,35.68-11.43,68.18-32.1,91.32c26.83-21.39,43.74-55.51,42.69-93.5
			c-1.23-44.44-26.72-82.24-62.82-99.92C427.73,165.65,448.43,203.21,449.64,246.54z"/>
		<path class="st1" d="M29.82,287.31c-2.51-30.04,8.8-58.23,28.9-79.03c-26.47,19.7-42.29,49.54-39.62,81.53
			c3.13,37.42,30.72,67.74,68.29,80.42C55.57,354.2,32.87,323.79,29.82,287.31z"/>
	</g>
	<g>
		
			<rect x="176.5" y="111.26" transform="matrix(0.0656 -0.9978 0.9978 0.0656 29.3779 316.1489)" class="st2" width="14" height="62.25"/>
	</g>
	<g>
		
			<rect x="249.96" y="132.53" transform="matrix(0.9889 -0.1483 0.1483 0.9889 -17.5626 43.5157)" class="st2" width="66.12" height="14"/>
	</g>
	<g>
		
			<rect x="202.05" y="287.33" transform="matrix(0.9874 -0.1585 0.1585 0.9874 -43.2214 46.6982)" class="st2" width="138.24" height="14"/>
	</g>
</g>
</svg>
